<svg width="1121" height="778" viewBox="0 0 1121 778" fill="none" xmlns="http://www.w3.org/2000/svg">
<g clip-path="url(#clip0_9_223)">
<path d="M212.594 167C247.94 167 276.594 138.346 276.594 103C276.594 67.6538 247.94 39 212.594 39C177.248 39 148.594 67.6538 148.594 103C148.594 138.346 177.248 167 212.594 167Z" fill="#FF6584"/>
<path d="M523.977 343.122C523.977 494.133 434.203 546.861 323.461 546.861C212.719 546.861 122.945 494.133 122.945 343.122C122.945 192.11 323.461 0 323.461 0C323.461 0 523.977 192.11 523.977 343.122Z" fill="#F2F2F2"/>
<path d="M316.157 523.761L318.211 397.378L403.675 241.024L318.533 377.552L319.456 320.725L378.358 207.605L319.7 305.687L321.36 203.481L384.434 113.423L321.622 187.409L322.659 0L316.139 248.096L316.675 237.861L252.548 139.704L315.647 257.508L309.672 371.654L309.494 368.625L235.566 265.329L309.27 379.328L308.523 393.603L308.389 393.818L308.45 394.99L293.291 684.589H313.545L315.975 535.005L389.497 421.285L316.157 523.761Z" fill="url(#paint0_linear_9_223)"/>
<path d="M1120.59 404.971C1120.59 528.581 1047.11 571.741 956.46 571.741C865.812 571.741 792.328 528.581 792.328 404.971C792.328 281.361 956.46 124.109 956.46 124.109C956.46 124.109 1120.59 281.361 1120.59 404.971Z" fill="#F2F2F2"/>
<path d="M950.484 552.832L952.164 449.382L1022.12 321.399L952.428 433.153L953.184 386.638L1001.4 294.043L953.384 374.328L954.743 290.668L1006.37 216.951L954.956 277.513L955.806 124.109L950.469 327.187L950.908 318.81L898.416 238.463L950.066 334.892L945.175 428.326L945.029 425.846L884.516 341.293L944.846 434.607L944.234 446.292L944.125 446.468L944.175 447.427L931.766 684.477H948.345L950.334 562.036L1010.52 468.951L950.484 552.832Z" fill="url(#paint1_linear_9_223)"/>
<path d="M554.592 708.514C860.885 708.514 1109.18 695.963 1109.18 680.48C1109.18 664.997 860.885 652.445 554.592 652.445C248.299 652.445 0 664.997 0 680.48C0 695.963 248.299 708.514 554.592 708.514Z" fill="url(#paint2_linear_9_223)"/>
<path d="M892.446 731.599C944.906 731.599 987.434 729.45 987.434 726.798C987.434 724.146 944.906 721.996 892.446 721.996C839.985 721.996 797.457 724.146 797.457 726.798C797.457 729.45 839.985 731.599 892.446 731.599Z" fill="url(#paint3_linear_9_223)"/>
<path d="M548.719 777.916C601.18 777.916 643.708 775.766 643.708 773.114C643.708 770.462 601.18 768.312 548.719 768.312C496.258 768.312 453.73 770.462 453.73 773.114C453.73 775.766 496.258 777.916 548.719 777.916Z" fill="url(#paint4_linear_9_223)"/>
<path d="M287.944 745.249C407.798 745.249 504.958 740.337 504.958 734.279C504.958 728.22 407.798 723.309 287.944 723.309C168.09 723.309 70.9297 728.22 70.9297 734.279C70.9297 740.337 168.09 745.249 287.944 745.249Z" fill="url(#paint5_linear_9_223)"/>
<path d="M97.082 645.27C140.713 645.27 176.082 609.9 176.082 566.27C176.082 522.639 140.713 487.27 97.082 487.27C53.4515 487.27 18.082 522.639 18.082 566.27C18.082 609.9 53.4515 645.27 97.082 645.27Z" fill="#2F2E41"/>
<path d="M84.3538 628.123L60.3555 627.84L59.8488 670.837L83.8472 671.12L84.3538 628.123Z" fill="#2F2E41"/>
<path d="M132.35 628.689L108.352 628.406L107.845 671.403L131.843 671.686L132.35 628.689Z" fill="#2F2E41"/>
<path d="M99.8395 671.808C99.8883 667.666 90.9742 664.203 79.9293 664.073C68.8843 663.942 59.8911 667.195 59.8423 671.336C59.7935 675.478 68.7076 678.941 79.7525 679.072C90.7974 679.202 99.7907 675.95 99.8395 671.808Z" fill="#2F2E41"/>
<path d="M147.847 671.374C147.896 667.232 138.982 663.769 127.937 663.639C116.892 663.509 107.899 666.761 107.85 670.903C107.801 675.045 116.715 678.508 127.76 678.638C138.805 678.768 147.799 675.516 147.847 671.374Z" fill="#2F2E41"/>
<path d="M99.3203 573.293C114.232 573.293 126.32 561.205 126.32 546.293C126.32 531.381 114.232 519.293 99.3203 519.293C84.4086 519.293 72.3203 531.381 72.3203 546.293C72.3203 561.205 84.4086 573.293 99.3203 573.293Z" fill="white"/>
<path d="M99.3203 555.293C104.291 555.293 108.32 551.264 108.32 546.293C108.32 541.322 104.291 537.293 99.3203 537.293C94.3497 537.293 90.3203 541.322 90.3203 546.293C90.3203 551.264 94.3497 555.293 99.3203 555.293Z" fill="#3F3D56"/>
<path d="M21.3202 491.903C15.2783 463.262 36.0077 434.638 67.6206 427.969C99.2336 421.301 129.759 439.112 135.801 467.753C141.843 496.394 120.822 506.683 89.2094 513.352C57.5965 520.021 27.362 520.544 21.3202 491.903Z" fill="#F29F25"/>
<path d="M217.592 610.344C217.592 665.419 184.852 684.65 144.462 684.65C143.526 684.65 142.592 684.639 141.66 684.619C139.788 684.578 137.935 684.489 136.103 684.365C99.652 681.785 71.332 661.565 71.332 610.344C71.332 557.335 139.071 490.447 144.159 485.497L144.168 485.488C144.364 485.297 144.462 485.203 144.462 485.203C144.462 485.203 217.592 555.268 217.592 610.344Z" fill="#F29F25"/>
<path d="M141.796 676.224L168.543 638.851L141.729 680.328L141.658 684.619C139.787 684.578 137.933 684.489 136.102 684.365L138.985 629.262L138.962 628.834L139.011 628.754L139.283 623.55L112.402 581.97L139.368 619.647L139.43 620.752L141.609 579.119L118.596 536.153L141.89 571.811L144.158 485.497L144.166 485.203V485.488L143.788 553.552L166.699 526.569L143.694 559.416L143.088 596.692L164.48 560.917L142.999 602.176L142.661 622.899L173.716 573.108L142.545 630.131L141.796 676.224Z" fill="#3F3D56"/>
<path d="M712.484 644.414C756.115 644.414 791.484 609.045 791.484 565.414C791.484 521.784 756.115 486.414 712.484 486.414C668.854 486.414 633.484 521.784 633.484 565.414C633.484 609.045 668.854 644.414 712.484 644.414Z" fill="#2F2E41"/>
<path d="M719.226 628.204L696.285 635.254L708.917 676.357L731.858 669.306L719.226 628.204Z" fill="#2F2E41"/>
<path d="M765.109 614.11L742.168 621.16L754.8 662.263L777.741 655.213L765.109 614.11Z" fill="#2F2E41"/>
<path d="M730.387 678.131C740.946 674.886 748.518 669.046 747.302 665.086C746.085 661.127 736.539 660.548 725.981 663.793C715.423 667.038 707.85 672.878 709.067 676.837C710.283 680.796 719.829 681.376 730.387 678.131Z" fill="#2F2E41"/>
<path d="M775.973 663.072C786.532 659.827 794.104 653.987 792.888 650.028C791.671 646.069 782.125 645.489 771.567 648.734C761.008 651.979 753.436 657.819 754.652 661.778C755.869 665.738 765.415 666.317 775.973 663.072Z" fill="#2F2E41"/>
<path d="M708.523 572.711C723.435 572.711 735.523 560.623 735.523 545.711C735.523 530.799 723.435 518.711 708.523 518.711C693.612 518.711 681.523 530.799 681.523 545.711C681.523 560.623 693.612 572.711 708.523 572.711Z" fill="white"/>
<path d="M708.523 554.711C713.494 554.711 717.523 550.682 717.523 545.711C717.523 540.74 713.494 536.711 708.523 536.711C703.553 536.711 699.523 540.74 699.523 545.711C699.523 550.682 703.553 554.711 708.523 554.711Z" fill="#3F3D56"/>
<path d="M617.653 517.701C603.163 492.267 614.174 458.684 642.247 442.691C670.32 426.698 704.823 434.351 719.312 459.784C733.802 485.217 716.922 501.428 688.849 517.421C660.777 533.414 632.142 543.134 617.653 517.701Z" fill="#F29F25"/>
<path d="M571.592 600.256C571.592 650.813 541.538 668.466 504.462 668.466C503.603 668.466 502.746 668.456 501.889 668.437C500.172 668.4 498.47 668.319 496.789 668.204C463.328 665.836 437.332 647.275 437.332 600.256C437.332 551.597 499.513 490.197 504.184 485.653L504.192 485.645C504.372 485.469 504.462 485.383 504.462 485.383C504.462 485.383 571.592 549.699 571.592 600.256Z" fill="#F29F25"/>
<path d="M502.017 660.731L526.57 626.424L501.956 664.498L501.89 668.437C500.173 668.4 498.471 668.319 496.79 668.204L499.436 617.622L499.416 617.23L499.461 617.156L499.71 612.379L475.035 574.211L499.788 608.796L499.845 609.81L501.845 571.593L480.72 532.153L502.103 564.885L504.185 485.653L504.193 485.383V485.645L503.845 548.124L524.876 523.355L503.76 553.507L503.203 587.724L522.84 554.885L503.122 592.759L502.811 611.782L531.318 566.075L502.704 618.42L502.017 660.731Z" fill="#3F3D56"/>
<path d="M835.592 621.344C835.592 676.419 802.852 695.65 762.462 695.65C761.526 695.65 760.592 695.639 759.659 695.619C757.788 695.578 755.935 695.489 754.103 695.365C717.652 692.785 689.332 672.565 689.332 621.344C689.332 568.335 757.071 501.447 762.159 496.497L762.168 496.488C762.364 496.297 762.462 496.203 762.462 496.203C762.462 496.203 835.592 566.268 835.592 621.344Z" fill="#F29F25"/>
<path d="M759.796 687.224L786.543 649.851L759.729 691.328L759.658 695.619C757.787 695.578 755.933 695.489 754.102 695.365L756.985 640.262L756.962 639.834L757.011 639.754L757.283 634.55L730.402 592.97L757.368 630.647L757.43 631.752L759.609 590.119L736.596 547.153L759.89 582.811L762.158 496.497L762.166 496.203V496.488L761.788 564.552L784.699 537.569L761.694 570.416L761.088 607.692L782.48 571.917L760.999 613.176L760.66 633.899L791.716 584.108L760.545 641.131L759.796 687.224Z" fill="#3F3D56"/>
<path d="M717.501 612.708C720.436 606.521 706.836 593.926 687.126 584.578C667.415 575.229 649.057 572.667 646.122 578.855C643.188 585.042 656.787 597.637 676.498 606.985C696.209 616.334 714.566 618.896 717.501 612.708Z" fill="#2F2E41"/>
<path d="M109.478 605.475C112.026 599.118 97.6758 587.385 77.4265 579.269C57.1773 571.153 38.6965 569.727 36.1486 576.084C33.6007 582.44 47.9504 594.173 68.1997 602.289C88.4489 610.406 106.93 611.832 109.478 605.475Z" fill="#2F2E41"/>
</g>
<defs>
<linearGradient id="paint0_linear_9_223" x1="319.621" y1="0" x2="319.621" y2="684.589" gradientUnits="userSpaceOnUse">
<stop stop-color="#222222"/>
<stop offset="1" stop-color="#404040"/>
</linearGradient>
<linearGradient id="paint1_linear_9_223" x1="953.318" y1="124.109" x2="953.318" y2="684.477" gradientUnits="userSpaceOnUse">
<stop stop-color="#222222"/>
<stop offset="1" stop-color="#404040"/>
</linearGradient>
<linearGradient id="paint2_linear_9_223" x1="554.592" y1="652.445" x2="554.592" y2="708.514" gradientUnits="userSpaceOnUse">
<stop stop-color="#222222"/>
<stop offset="1" stop-color="#404040"/>
</linearGradient>
<linearGradient id="paint3_linear_9_223" x1="892.446" y1="721.996" x2="892.446" y2="731.599" gradientUnits="userSpaceOnUse">
<stop stop-color="#222222"/>
<stop offset="1" stop-color="#404040"/>
</linearGradient>
<linearGradient id="paint4_linear_9_223" x1="548.719" y1="768.312" x2="548.719" y2="777.916" gradientUnits="userSpaceOnUse">
<stop stop-color="#222222"/>
<stop offset="1" stop-color="#404040"/>
</linearGradient>
<linearGradient id="paint5_linear_9_223" x1="287.944" y1="723.309" x2="287.944" y2="745.249" gradientUnits="userSpaceOnUse">
<stop stop-color="#222222"/>
<stop offset="1" stop-color="#404040"/>
</linearGradient>
<clipPath id="clip0_9_223">
<rect width="1120.59" height="777.916" fill="white"/>
</clipPath>
</defs>
</svg>
